<svg width="21" height="21" viewBox="0 0 21 21" fill="none" xmlns="http://www.w3.org/2000/svg">
<path d="M12.7958 4.58329C13.6912 4.75798 14.514 5.19586 15.159 5.8409C15.8041 6.48594 16.242 7.30879 16.4167 8.20413L12.7958 4.58329ZM12.7958 0.916626C14.656 1.12328 16.3906 1.95629 17.7149 3.27888C19.0391 4.60148 19.8743 6.33505 20.0833 8.19496L12.7958 0.916626ZM19.1667 15.51V18.26C19.1677 18.5153 19.1154 18.7679 19.0131 19.0019C18.9108 19.2358 18.7608 19.4457 18.5727 19.6183C18.3846 19.7909 18.1625 19.9223 17.9207 20.0041C17.6788 20.0859 17.4226 20.1163 17.1683 20.0933C14.3476 19.7868 11.6381 18.8229 9.25749 17.2791C7.04266 15.8717 5.16488 13.994 3.75749 11.7791C2.2083 9.38773 1.24421 6.66504 0.943323 3.83163C0.920416 3.57814 0.950542 3.32266 1.03178 3.08145C1.11302 2.84024 1.2436 2.61859 1.41519 2.43061C1.58679 2.24263 1.79564 2.09244 2.02846 1.9896C2.26129 1.88677 2.51297 1.83353 2.76749 1.83329H5.51749C5.96235 1.82891 6.39363 1.98645 6.73094 2.27653C7.06824 2.56661 7.28856 2.96945 7.35082 3.40996C7.46689 4.29002 7.68215 5.15413 7.99249 5.98579C8.11582 6.31389 8.14251 6.67046 8.0694 7.01327C7.99629 7.35607 7.82645 7.67073 7.57999 7.91996L6.41582 9.08413C7.72075 11.379 9.62091 13.2792 11.9158 14.5841L13.08 13.42C13.3292 13.1735 13.6439 13.0037 13.9867 12.9305C14.3295 12.8574 14.6861 12.8841 15.0142 13.0075C15.8458 13.3178 16.7099 13.5331 17.59 13.6491C18.0353 13.7119 18.4419 13.9362 18.7326 14.2793C19.0233 14.6224 19.1778 15.0604 19.1667 15.51Z" stroke="white" stroke-width="0.8" stroke-linecap="round" stroke-linejoin="round"/>
</svg>
